<?xml version="1.0" encoding="UTF-8"?>
<!DOCTYPE svg PUBLIC "-//W3C//DTD SVG 1.1//EN" "http://www.w3.org/Graphics/SVG/1.1/DTD/svg11.dtd">
<!-- Creator: CorelDRAW 2020 (64-Bit) -->
<svg xmlns="http://www.w3.org/2000/svg" xml:space="preserve" width="83.7292mm" height="118.417mm" version="1.1" style="shape-rendering:geometricPrecision; text-rendering:geometricPrecision; image-rendering:optimizeQuality; fill-rule:evenodd; clip-rule:evenodd"
viewBox="0 0 8372.92 11841.7"
 xmlns:xlink="http://www.w3.org/1999/xlink"
 xmlns:xodm="http://www.corel.com/coreldraw/odm/2003">
 <defs>
  <style type="text/css">
   <![CDATA[
    .fil0 {fill:#21C0A5}
    .fil2 {fill:#4DE5B8;fill-rule:nonzero;fill-opacity:0.290196}
    .fil3 {fill:#30E7B0;fill-rule:nonzero;fill-opacity:0.321569}
    .fil1 {fill:#26CBA5;fill-rule:nonzero;fill-opacity:0.349020}
   ]]>
  </style>
 </defs>
 <g id="Capa_x0020_1">
  <metadata id="CorelCorpID_0Corel-Layer"/>
  <g id="_2423853888400">
   <rect class="fil0" x="-2.84" y="3569.58" width="8372.92" height="4712.19"/>
   <g>
    <path class="fil1" d="M2366.04 8278.5c0,-1308.3 -1060.59,-2368.89 -2368.89,-2368.89l0 2372.16 2368.85 0c0,-1.09 0.04,-2.18 0.04,-3.27z"/>
    <path class="fil2" d="M1868.71 8278.5c0,-1033.63 -837.92,-1871.55 -1871.55,-1871.55l0 1874.82 1871.51 0c0,-1.09 0.04,-2.18 0.04,-3.27z"/>
    <path class="fil3" d="M1430.27 8278.5c0,-791.48 -641.62,-1433.11 -1433.11,-1433.11l0 1436.38 1433.07 0c0,-1.09 0.04,-2.18 0.04,-3.27z"/>
   </g>
   <path class="fil1" d="M4397.93 4476.49c-887.35,83.77 -1490.91,-575.86 -1681.78,-916.14l5653.93 22.91 0 4698.52 -631.49 0c-1955.32,-248.67 -1626.16,-1240.07 -1217.16,-1704.68 238.85,-326.1 670.75,-1111.81 487.52,-1645.79 -229.04,-667.48 -1501.82,-559.5 -2611.02,-454.8z"/>
  </g>
 </g>
</svg>
