<?xml version="1.0" encoding="UTF-8"?>
<!DOCTYPE svg PUBLIC "-//W3C//DTD SVG 1.1//EN" "http://www.w3.org/Graphics/SVG/1.1/DTD/svg11.dtd">
<!-- Creator: CorelDRAW 2020 (64-Bit) -->
<svg xmlns="http://www.w3.org/2000/svg" xml:space="preserve" width="210mm" height="297mm" version="1.1" style="shape-rendering:geometricPrecision; text-rendering:geometricPrecision; image-rendering:optimizeQuality; fill-rule:evenodd; clip-rule:evenodd"
viewBox="0 0 21000 29700"
 xmlns:xlink="http://www.w3.org/1999/xlink"
 xmlns:xodm="http://www.corel.com/coreldraw/odm/2003">
 <defs>
  <style type="text/css">
   <![CDATA[
    .fil0 {fill:#FEFEFE}
   ]]>
  </style>
 </defs>
 <g id="Capa_x0020_1">
  <metadata id="CorelCorpID_0Corel-Layer"/>
  <path class="fil0" d="M9996.37 11016.71c0,-418.6 173.9,-1098.27 277.83,-1428.64 81.16,-258.01 117.61,-402.43 208.06,-627.39 471.6,-1172.61 1098.28,-2220.17 1918.49,-3032.84 1664.29,-1649.01 4474.44,-2095.1 4743.33,-1398.24 93.43,242.09 291.18,1212.58 306.24,1762.58 23.16,219.9 46.42,542.83 50.31,703.63 16.96,700.99 -106.67,1748.64 -168.32,1878.06 -1.02,2.17 -2.2,4.25 -3.4,6.32 -31.39,195.82 -88.86,396.39 -120.08,537.36l-421.03 1359.73c-144.15,362.6 -380.07,828.61 -560.61,1128.68l-696.17 1013.78c-1041.04,1308.94 -2554.41,2319.72 -4120.62,2319.72l-486.06 0 0 6834.2 246.78 -523.15c108.89,-462.92 -151.25,-1974.92 594.51,-3586.34 794.34,-1716.39 2350.94,-3391.45 4284.62,-3391.45 527.66,0 1081.71,48.4 1565.08,199.03 537.53,167.49 555.99,403.48 555.99,1078.91 0,3442.94 -2279.66,6389.67 -5125.92,6389.67 -469.24,0 -941.11,-109.58 -1325.65,-222.23l-510.15 1525.48c-128.14,482.89 -248.41,1251.36 -285.26,1808.27 986.57,0 1850.51,78.57 2726.15,239.26l1866.86 430.8c33.84,8.84 65.88,17.78 96.04,27.53 41.66,6.72 88.75,24.37 149.2,49.38 129.2,53.48 552.35,187.36 706.83,250.03 496.39,201.43 524.42,179.8 1088.07,448.84 40.63,19.4 68.74,39.37 86.61,60.07 439.78,219.78 1157.34,684 1337.09,809.5 139.34,97.26 211.36,173.56 353.22,278.19 206.84,152.57 586.66,398.46 536.18,764.97 -31.94,231.87 -130.2,364.11 -329.42,364.11l-18161.65 0c-119.35,0 -121.83,-26.54 -220.93,-55.56 -306.08,-802.07 934.07,-1418.54 1384.48,-1704.02 335.64,-212.74 659.96,-365.58 1027.08,-542.16 1149,-552.69 2247.92,-865.9 3478.04,-1127.42 944.34,-200.78 2094.46,-293.52 3124.93,-293.52 0,-1174.18 -548.46,-2586.25 -1013.8,-3559.22 -165.94,-346.91 -359.36,-615.65 -532.8,-941.34 -329.07,218.92 -1037.09,388.93 -1546.63,388.93 -1243.19,0 -2299.89,-748 -2927.54,-1541.82 -196.76,-248.83 -314.55,-385 -481.94,-671.97 -542.67,-930.46 -832.64,-2045.16 -832.64,-3286.9 0,-494 610.13,-657.84 927.96,-666.75 -96.02,-452.19 -564.52,-1230.68 -733.97,-2021.45 -52.62,-245.41 -84.37,-511.57 -109.14,-760.93 -60.33,-607.3 -152.17,-1678.7 -129.85,-1849.76l0.02 -0.11c-2.37,-533.91 4.83,-1449.05 309.41,-1647.18 207.79,-135.16 1018.45,-221.39 1370.55,-221.39 1115.53,0 2055.68,375.59 2813.36,851.95 1321.41,830.78 1573.77,1509.02 2003.25,1870.61 -119.65,-645.63 -300.64,-1237.25 -466.31,-1858.43l-116.91 -241.93c-260.41,-233.61 -842.78,-326.71 -1439.04,-1024.28 -788.35,-922.34 -1468.68,-2317.61 -1468.68,-3820.67 0,-1161.5 139.86,-2216.16 636,-3145.2 104.84,-196.28 253.71,-577.48 468.72,-577.48 767.28,0 1603.51,822.44 2087.93,1430.72 1397,1754.25 1654.19,4674.44 552.5,6725.98 -147.59,274.85 -66.35,415.76 16.5,726.21l352.86 1334.4c38.11,110.93 24.73,87.96 83.44,172.87zm-3276.77 1879.66c-1069.69,-180.49 -1286.91,-100.34 -2140.61,-690.19 -13.56,-9.39 -56.12,-31.35 -70.46,-38.95 17,7.54 58.33,25.26 74.28,34.71 805.26,477.07 1041.25,498.38 2025.62,389.3 -7.06,-17.3 -14.07,-34.18 -21.09,-50.66 -110.25,-258.92 -1326.13,-588.47 -1193.07,-762.66 133.75,-605.37 -332.41,-1181.91 -798.08,-1511.1 559.59,326.32 825.08,699.02 1021.42,1235.03 17.89,39.24 43.38,116.49 91.61,240.56 51.17,131.63 312.63,244.01 508.45,311.96 381.24,132.24 603.22,572.44 780.82,1003.66 188.59,-636.05 546.95,-1533.99 290.35,-2020.47 -69.02,-130.83 -114,-171.38 -211.07,-287.41 353.57,374.13 430.34,597.83 339.21,1134.27 -67.8,399.17 -233.63,1157.69 -257.13,1576.21 30.3,73.95 60.35,143.95 90.9,207.91l-17.98 8.13c173.82,170.28 213.78,285.05 308.07,363.86 344.46,287.8 621.79,557.89 861.28,824.15 484.81,-410.43 -247.74,-1184.74 -267.08,-1629.94 74.31,582.77 809.63,805.37 490.95,1815.93 -2.26,7.25 -10.62,31.27 -18.05,52.6 543.78,657.19 908.98,1316.52 1540.7,2189.5l68.66 -219.74c0,-2028.86 -449.25,-3943.04 -1557.27,-5320.6 -1282.96,-1595.07 -2534.75,-2291.46 -4452.41,-2291.46 -293.9,0 -382.53,55.56 -662.84,55.56 -10.77,162.6 -29.46,606.48 -68.28,929.25 3.3,74.79 -4.79,169.76 -15.16,282.66 -20.12,218.75 48.92,850.81 110.78,1312.95 42.56,317.92 106.37,631.93 190.44,941.76 190.93,703.72 480.73,1272.68 754.37,1922.94 1809.17,0 3188.13,1181.34 3977.01,3055.94 238.4,0 454.49,0.29 686.04,20.53 154.65,13.5 446.34,-20.53 683.81,-20.53 -69.58,-130.65 162.23,-213.38 85.88,-338.33 -317.91,-520.27 -1143.44,-1901.66 -2052.32,-2818.4 -101.83,-21.08 -498.59,-89.76 -521.06,-98.05 -571.44,-211.49 -2033.86,-587.69 -2171.6,-1145.46 189.54,605.96 1736.73,798.16 2276.56,864.56 -29.48,-23.81 -59,-47.08 -88.52,-69.48 -134.23,-101.9 -195.9,-106.65 -285.46,-245.84 -68.57,-106.54 -109.75,-223.7 -123.67,-321.65l-19.8 8.96c-87.54,-377.23 -167.68,-669.07 -244.2,-901.97zm990.06 -8453.24c-609.94,-595.1 -389.62,-742.81 -447.97,-1452.54 22.02,872.6 -225.57,697.25 349.98,1596.79 11.57,18.12 83.33,98.58 130.6,153.8 14.78,121.77 31.58,244.45 50.62,365.98 77.4,493.73 194.16,967.4 291.42,1312.95 -545.27,-628.57 -718.06,-833.31 -1143.71,-1736.56 257.61,656.68 598.19,1275.17 942.92,1889.27 40.25,71.71 262.12,271.52 374.82,394.33 122.45,319.18 305.65,691.81 314.2,728.05 25.65,108.89 75.96,318.47 171.25,700.28 -134.53,-16.17 -335.64,-154.08 -659.35,-482.1 -1581.23,-1602.1 -2109.29,-3586.64 -1200.32,-5958.2 53.56,-139.73 132.66,-271.84 208.18,-408.58 0,0 1043.66,295.03 1657.22,1426.38 897,1653.98 1247.31,3567.13 243.88,5227.52 -125.16,-299.21 -225.19,-525.81 -307.06,-705.84 253.64,-247.16 212.57,-534.73 198.7,-961.12 -8.47,62.57 -174.89,764.92 -274.21,796.9 -249.23,-536.75 -301.05,-601.4 -459.83,-1334.93 45.33,-131.61 140.45,-385.4 161.99,-458.41 446.04,-1510.47 144.54,-1182.87 -196.87,-2516.46 223.39,1137.83 635,1266.29 -68.45,2480.64 -22.05,-107.86 -45.92,-225.32 -71.96,-354.03 -90.56,-447.56 -327.3,-1494.95 -335.11,-2035.9 -2.69,186.18 9.49,723.98 69.06,1331.78zm4460.62 8020.58c-8.67,71.79 1510.37,-685.48 1845.06,-967.61 302.11,-254.68 508.86,-355.82 923.05,-504.08 -893.19,232.44 -568.03,98.69 -1421.71,634.57 -311.28,195.44 -746.78,286.78 -1120.11,427.67 83.74,-168.6 181.79,-400.47 243.96,-601.73 86.89,-281.09 109.21,-107.68 201.81,-458.2 110.34,-120.44 148.85,-192.56 523.39,-257.01 1098.8,-189.05 1908.49,-597.3 2761.88,-1329.22 84.63,-72.6 162.77,-140.93 201.82,-246.02 -42.6,102.99 -122.5,167.83 -209.36,236.79 -852.51,676.96 -1686.97,1066.88 -2764.63,1169.51 -187.86,17.89 -323.23,55.27 -425.48,98.67 93.98,-345.05 199.45,-708.76 324.55,-1070.35 43.65,-21.71 111.31,-54.38 140.01,-69.63 1076.75,-571.81 1783.28,-1198.32 2490.44,-2227.56 -230.21,303.41 -287.7,403.59 -563.83,668.74 -760.96,730.63 -1038.5,982.33 -1929.82,1255.98 383.72,-983.56 936.24,-1896.35 1824.35,-2304.09 -682.66,275.81 -1134.31,724.86 -1494.55,1282.5 -198.19,-469.31 -288.59,-841.63 -189.31,-1445.55 -159.85,614.06 -48.04,889.15 -45.59,1499.49 0.09,21.44 7.65,213.81 11.4,324.66 -222.73,409.78 -417.21,863.38 -627.41,1340.41 -380.28,-153.8 -779.56,-1129.6 -266.14,-1827.38 -625.04,682.22 -382.31,1525.34 100.31,2199.34 -103.71,228.68 -213.46,461.42 -333.63,696.02 -8.04,-35.32 -6.07,-106.82 -16.1,-179.99 -32.51,-237.1 -676.74,-473 -947.52,-1367.16 -21.35,-70.58 -40.92,-136.88 -46.74,-240.5 4.6,105.65 23.39,175.41 43.87,249.57 305.29,1106.21 740.86,1132.16 880.09,1678.86 7.66,30.11 16.82,63.48 28.89,101 -23.22,22.09 -47.58,45.98 -73.28,72.02 -290.87,294.54 -472.85,728.22 -649.29,1097.18l-15.85 32.86c-159.96,-264.23 -191.65,-963.16 184.41,-1230.51 -459.71,237.45 -462.23,872.26 -304.96,1472.4 -201.57,399.36 -521.38,1019.15 -628.46,1248.38 -61.57,131.78 -166.68,-185.34 -167.87,-236.24 -10.82,-459.86 -87.12,-814.92 -87.12,-1337.28 0,-1197.24 236.36,-2225.28 530.72,-3055.37 734.96,-2072.5 2342.86,-3610.25 4112.47,-4052.42 477.79,-119.41 791.63,-115.34 1366.51,-115.34 77.04,415.83 101.5,797.34 146.18,1095.04 -2.16,2.39 -4.24,4.81 -6,7.27 -2.96,4.09 130.56,1411.65 73.07,1766.15 -29.96,184.64 -74.67,364.48 -120.71,582.08 -11.36,39.77 -21.31,82.6 -30.13,128.35 -512.73,2659.41 -2102.25,4850.46 -4251.03,5489.52 -303.31,90.19 -764.72,189.02 -1098.7,207.96 -42.66,2.37 -222.04,-91.21 -174.69,-198.11 168.96,-381.41 705.6,-1135.46 839.88,-1388.37l211.59 -362.51 0.31 9.24zm224.4 -1306.07l-27.49 -8.98 -5.71 38.17c11.4,-10.27 22.47,-19.99 33.2,-29.19zm2820.98 -4237.5c62.3,-25.18 126.51,-48.88 192.8,-71.14l-84.6 24.31c-36.66,14.7 -72.61,30.49 -108.2,46.83zm192.8 -71.14c101.71,-34.12 207.93,-64.99 319.59,-91.91l-319.59 91.91zm-1075.79 11680.83c-12.1,-80.82 -43.3,-264.27 -43.42,-281.63 -6.72,-897.44 243.02,-1287.71 1129.03,-1759.25 -606.84,382.17 -1198.85,973.35 -837.22,1711.06 148.5,-186.92 307.59,-367.45 484.45,-536.33l508.32 -419.17c-820.15,719.05 -1238.14,1413.19 -1677,2082.41 815.15,-341.1 1482.63,-778.78 2165.89,-1349.08 -639.8,604.02 -1363.69,1109.99 -2073.33,1628.43 -20.39,14.88 -326.13,161.38 -430.07,214.82 -341.49,471.89 -747.91,930.88 -1376.29,1377.01 469.51,239.3 1510.93,184.52 2474.25,-267.71 1364.96,-640.81 2117.39,-2025.38 2488.52,-3427.49 221.75,-837.72 306.87,-1621.92 178.87,-1855.01 -13.14,-23.95 -49.47,-23.01 -74.24,-33.76 -917.58,-398.75 -1914.23,-147.44 -2665.48,257.99 -1566.34,845.22 -3030.41,3267.23 -2649.98,5048.1 5.23,24.53 13.37,48.04 24.15,70.55 405.47,-173.31 732.79,-407.38 1015.27,-677.93 -28.33,-74.54 37.25,-360.29 43.76,-387.71 183.03,-770.89 82.68,-1090 377.94,-1836.18 -203.29,673.34 -161.97,1170.99 -92.97,1872.46 376.39,-444.57 682.4,-948.86 1029.55,-1431.58zm-7539.53 8075.11c2204.8,466.74 4963.73,931.97 7292.5,563.75 733.17,-115.91 128.48,-56.36 869.93,-111.62 -1488.44,1245.12 -6375.08,670.5 -8812.84,281.84 -407.24,-81.95 -630.73,-280.06 -548.88,-465.46 -942.44,280.6 -1832.65,648.68 -2565.16,1107.66l-367.68 259.98 15687.06 0 -160.46 -131.61c-193.38,-129.47 -629.72,-300.4 -932.88,-506.97 -14.51,2.75 -33.47,-1.72 -58.35,-16.07 -582.21,-335.78 -1827.13,-686.64 -1838.23,-706.67l0 -0.02c-272.23,-48.82 -589.77,-177.43 -821.22,-236.29 -888.96,-226.03 -1776.29,-356.9 -2685.15,-392.12 -640.92,-24.77 -1385.94,-78.34 -2011.5,-60.57 -963.92,27.46 -2060.59,158.59 -3142.49,397.72 31.96,4.64 63.81,10.1 95.35,16.45zm775.88 -7200.33c108.68,-147.78 23.2,-320.6 4.91,-537.9 106.44,309.58 143.08,366.84 230.09,706.84 207.85,149.67 390.06,282.04 503.76,370.75 11.11,8.65 75.07,61.96 129.64,107.5 5.79,-21.94 8.38,-44.68 7.16,-68.28 -39.27,-754.95 -299.1,-1430.57 -666.66,-2045.64 -811.52,-1358.11 -2387.96,-2809.5 -4066.28,-1891.23 -19.42,10.63 -49.15,12.54 -58.09,33.07 -87.16,199.77 40.5,833.61 283.71,1501 407.03,1117 1124.02,2191.38 2285.83,2613.17 753.23,273.47 1573.1,269.48 1973.45,88.15 -42.35,-50.23 -120.98,-143.41 -138.08,-162.52 -343.93,-384.54 -791.46,-720.24 -1160.4,-1016.36l-0.71 1.7c0.69,-1.7 -325.27,20.62 -608.02,-104.19 -481.5,-212.58 -1064.47,-491.25 -1080.61,-740.86 49.91,340.51 942.43,549.64 1450.54,646.12 -131.34,-113.09 -242.9,-219.99 -322.37,-321.32 -464.79,-592.7 86.11,-140.05 -555.79,-681.4 -190.17,-160.37 -1455.31,-972.46 -1473.79,-1303.14 28.39,331.94 1319.42,1097.33 1513.45,1250.46l86.91 68.66c219.38,-431.36 -366.11,-1171.99 -600.37,-1452.45 485.81,483.9 780.73,858.38 852,1498.33 3.21,29.02 -0.09,113.07 0.48,158.93 127.26,113.93 -104.46,-25.49 256.52,396.17 68.89,80.46 279.01,245.33 539.02,438.4l3.55 0.61 -0.65 1.53c189.1,140.37 404.34,295.49 610.8,443.9zm1484.03 -534.5l1215.15 -93.48c26.06,-2.02 17.91,2154.95 28.37,3412.85 2.2,273.82 -1.1,188.93 -114.25,-19.01 -324.68,-685.78 -653.11,-1372.03 -1113.92,-2070.81 -135.13,-205.06 -134.46,-512.06 -172.22,-753.95 -13.06,-83.73 -24.81,-168.04 -39.7,-253.07 -54.91,-313.55 -83.32,-201.01 196.57,-222.53z"/>
 </g>
</svg>
